<svg id="Layer_1" data-name="Layer 1" xmlns="http://www.w3.org/2000/svg" viewBox="0 0 129 129"><defs><style>.cls-1{fill:none;stroke:#c70000;stroke-miterlimit:10;stroke-width:7px;}</style></defs><title>gallery_cross</title><circle cx="76" cy="42.4" r="6.6"/><path d="M6.4,119.5h0c0,.1,0,.1.1.1.1.2.2.5.3.7s.1.1.1.2.1.1.1.2l.1.1c.1.2.3.3.4.5l.1.1.2.2a.1.1,0,0,1,.1.1c.1.1.2.1.3.2l.1.1a.1.1,0,0,1,.1.1c.1.1.3.1.4.2s.1,0,.2.1a.35.35,0,0,1,.2.1,2.77,2.77,0,0,0,.9.1H118.3a4.06,4.06,0,0,0,4.1-4.1V10.6a4.06,4.06,0,0,0-4.1-4.1H10.4a4.06,4.06,0,0,0-4.1,4.1V118.3c0,.3.1.7.1,1v.2Zm108.1-5.2H24.1L90.9,70.6l23.6,22.5ZM14.5,14.7h100V81.8L94.2,62.4a4.22,4.22,0,0,0-5.1-.5L70,74.5,56.7,61.1a4.1,4.1,0,0,0-5.1-.6L14.5,83.9Zm0,78.9L53.2,69.2,63,79.1,14.5,110.8Z"/><line class="cls-1" x2="129" y2="130.53"/><line class="cls-1" x1="129" y2="130.53"/></svg>