<svg id="Layer_1" data-name="Layer 1" xmlns="http://www.w3.org/2000/svg" viewBox="0 0 512 512">
  <defs>
    <style>.cls-1{fill:#d80027;}.cls-2{fill:none;stroke:#a7000d;stroke-miterlimit:10;stroke-width:20px;}</style>
  </defs>
  <title>gallery_red_cross</title>
  <circle class="cls-1" cx="301.64" cy="168.29" r="26.2"/>
  <path class="cls-1"
    d="M25.4,474.29h0c0,.4,0,.4.4.4.4.8.79,2,1.19,2.78,0,.4.4.4.4.79s.39.4.39.8l.4.39c.4.8,1.19,1.19,1.59,2l.39.4.8.79a.39.39,0,0,1,.4.4c.39.39.79.39,1.19.79l.39.4a.39.39,0,0,1,.4.39c.4.4,1.19.4,1.59.8.39,0,.39,0,.79.39a1.35,1.35,0,0,1,.79.4,11,11,0,0,0,3.58.4H469.53a16.09,16.09,0,0,0,16.27-16.27V42.07A16.09,16.09,0,0,0,469.53,25.8H41.28A16.1,16.1,0,0,0,25,42.07V469.53c0,1.19.4,2.78.4,4v.79Zm429.05-20.63H95.65L360.78,280.21l93.67,89.3ZM57.55,58.34h396.9V324.66l-80.57-77a16.76,16.76,0,0,0-20.24-2l-75.81,50L225,242.51a16.29,16.29,0,0,0-20.24-2.39L57.55,333V58.34Zm0,313.16,153.6-96.85,38.9,39.3L57.55,439.76Z"/>
  <line class="cls-2" x1="-0.6" y1="0.2" x2="511.4" y2="512.2"/>
  <line class="cls-2" x1="511.41" y1="0.2" x2="-0.6" y2="512.2"/>
</svg>