<svg id="Capa_1" data-name="Capa 1" xmlns="http://www.w3.org/2000/svg" viewBox="0 0 228.4 228.4">
  <defs>
    <style>.cls-1{fill:none;stroke:#a7000d;stroke-miterlimit:10;stroke-width:20px;}</style>
  </defs>
  <title>google-translate_cross</title>
  <path
    d="M215.43,73.11h-79.8l-13-56.41H13a13,13,0,0,0-13,13V142.32a13,13,0,0,0,13,13H92.77l13,56.41H215.43a13,13,0,0,0,13-13V86.09A13,13,0,0,0,215.43,73.11ZM15,140.29V31.7h95.7l25,108.59Zm93.16,15h28.2l-21.13,30.64ZM213.4,196.7H126l16.19-23.48,2.46,4A99,99,0,0,0,168.32,157l19,19.37,7.86-7.7-20.1-20.51a102.34,102.34,0,0,0,14.07-30.38H202v-11H174.71v-6.56h-11v6.56H143.39l-4.3-18.69H213.4V196.7Zm-58.83-41.41h0l-3.71-16.08,9.69,9.89a87.85,87.85,0,0,1-6.59,7.08l.61-.88Zm-.13-28.14-5.19,5.08-3.32-14.43h31.73a93.56,93.56,0,0,1-10.52,22.31ZM67.83,78.5H104.9V86A37.07,37.07,0,1,1,67.83,48.92a36.69,36.69,0,0,1,22.6,7.69L81.28,68.49a21.84,21.84,0,0,0-13.45-4.57A22.08,22.08,0,1,0,88.59,93.5H67.83Z"/>
  <line class="cls-1" x1="0.6" y1="0.6" x2="228.4" y2="228.4"/>
  <line class="cls-1" x1="228.4" y1="0.6" x2="0.6" y2="228.4"/>
</svg>