<svg xmlns="http://www.w3.org/2000/svg" viewBox="0 0 278.5 240.5"><defs><style>.cls-1{fill:#f5f5f5;}</style></defs><title>08</title><g id="Artboard_2" data-name="Artboard 2"><path class="cls-1" d="M143,105.91a1.88,1.88,0,0,1-1.4-1.58l-5.47-41.59a1.89,1.89,0,0,1,1.62-2.11,1.91,1.91,0,0,1,2.11,1.62l5.45,41.6a1.88,1.88,0,0,1-1.61,2.1A2,2,0,0,1,143,105.91Z"/><path class="cls-1" d="M137.52,64.84a1.87,1.87,0,0,1-.68-.33L119.18,50.89a1.88,1.88,0,1,1,2.29-3l16.21,12.43,12.44-16.19a1.87,1.87,0,1,1,3,2.27L139.77,63.79a2.46,2.46,0,0,1-.22.36,1.88,1.88,0,0,1-1.27.73h-.05A1.7,1.7,0,0,1,137.52,64.84Z"/><path class="cls-1" d="M139.67,80.72a1.91,1.91,0,0,1-.69-.33L125.14,69.71a1.87,1.87,0,0,1,2.28-3l12.39,9.51,9.51-12.38a1.87,1.87,0,1,1,3,2.28L141.87,79.72a2.14,2.14,0,0,1-.2.32,1.88,1.88,0,0,1-1.26.73h0A2.11,2.11,0,0,1,139.67,80.72Z"/><path class="cls-1" d="M141.87,97.2a1.75,1.75,0,0,1-.67-.33L130,88.2a1.87,1.87,0,1,1,2.28-3L142,92.74l7.5-9.77a1.87,1.87,0,0,1,3,2.28l-8.44,11a2.29,2.29,0,0,1-.18.29,2,2,0,0,1-1.25.72s0,0,0,0A1.88,1.88,0,0,1,141.87,97.2Z"/><path class="cls-1" d="M149.59,158.32a1.9,1.9,0,0,1-1.39-1.57l-5.45-41.6a1.87,1.87,0,0,1,1.6-2.11,1.9,1.9,0,0,1,2.11,1.62l5.46,41.59a1.89,1.89,0,0,1-2.33,2.07Z"/><path class="cls-1" d="M136,175.52a1.86,1.86,0,0,1-.68-.33,1.88,1.88,0,0,1-.34-2.62l13.33-17.37a2.32,2.32,0,0,1,.22-.36,1.84,1.84,0,0,1,1.25-.72h.06a1.88,1.88,0,0,1,1.39.38l17.67,13.62a1.88,1.88,0,0,1-2.29,3l-16.22-12.46L138,174.85A1.89,1.89,0,0,1,136,175.52Z"/><path class="cls-1" d="M136.83,155.8a1.75,1.75,0,0,1-.68-.31,1.89,1.89,0,0,1-.34-2.64l10.42-13.57a1.32,1.32,0,0,1,.2-.32,1.77,1.77,0,0,1,1.24-.71s0,0,.06,0a1.91,1.91,0,0,1,1.38.38L163,149.29a1.88,1.88,0,1,1-2.29,3l-12.38-9.51-9.52,12.38A1.83,1.83,0,0,1,136.83,155.8Z"/><path class="cls-1" d="M136.62,136.71a1.9,1.9,0,0,1-.67-.33,1.88,1.88,0,0,1-.34-2.63l8.43-11a1.73,1.73,0,0,1,.19-.28,1.83,1.83,0,0,1,1.24-.72h0a1.91,1.91,0,0,1,1.4.38l11.23,8.67a1.87,1.87,0,1,1-2.29,3l-9.76-7.5L138.58,136A1.89,1.89,0,0,1,136.62,136.71Z"/><path class="cls-1" d="M113.92,148.78a2,2,0,0,1-.67-.33,1.89,1.89,0,0,1-.34-2.63l25.54-33.27a1.87,1.87,0,1,1,3,2.28L115.89,148.1A1.91,1.91,0,0,1,113.92,148.78Z"/><path class="cls-1" d="M117.19,170.55A1.86,1.86,0,0,1,115.8,169l-2.66-20.26-20.26,2.67a1.88,1.88,0,0,1-.49-3.72l21.69-2.86c.14,0,.28-.08.42-.1a1.91,1.91,0,0,1,1.42.4l0,0a1.93,1.93,0,0,1,.72,1.25l2.85,22.11a1.86,1.86,0,0,1-2.32,2.06Z"/><path class="cls-1" d="M126.29,153a1.9,1.9,0,0,1-1.4-1.58l-2-15.48-15.49,2a1.88,1.88,0,0,1-.48-3.73l17-2.22a2.11,2.11,0,0,1,.36-.09,1.85,1.85,0,0,1,1.41.4h0a1.91,1.91,0,0,1,.72,1.26L128.62,151a1.89,1.89,0,0,1-2.33,2.06Z"/><path class="cls-1" d="M136,136.54a1.85,1.85,0,0,1-1.38-1.55L133,122.76l-12.23,1.61a1.88,1.88,0,0,1-.48-3.72l13.75-1.8a1.14,1.14,0,0,1,.32-.07,1.81,1.81,0,0,1,1.38.37s0,0,0,0a1.85,1.85,0,0,1,.72,1.24l1.81,14.08a1.86,1.86,0,0,1-1.61,2.09A1.92,1.92,0,0,1,136,136.54Z"/><path class="cls-1" d="M146.69,107.22a2.25,2.25,0,0,1-.68-.33,1.89,1.89,0,0,1-.35-2.63L171.22,71a1.88,1.88,0,0,1,3,2.29l-25.56,33.28A1.88,1.88,0,0,1,146.69,107.22Z"/><path class="cls-1" d="M171.55,74.18a1.74,1.74,0,0,1-.7-.33l0,0a1.88,1.88,0,0,1-.71-1.25l-2.87-22.13A1.88,1.88,0,0,1,171,50l2.66,20.27,20.27-2.67a1.87,1.87,0,1,1,.48,3.71l-21.7,2.86a1.87,1.87,0,0,1-1.12.05Z"/><path class="cls-1" d="M162.16,87.06a1.83,1.83,0,0,1-.69-.33s0,0,0,0a1.8,1.8,0,0,1-.71-1.25l-2.25-17.34a1.88,1.88,0,0,1,3.72-.49l2,15.49,15.48-2a1.87,1.87,0,1,1,.49,3.71l-17,2.23a1.66,1.66,0,0,1-.37.09A1.87,1.87,0,0,1,162.16,87.06Z"/><path class="cls-1" d="M152.06,100.28a2,2,0,0,1-.68-.33s0,0,0,0a1.85,1.85,0,0,1-.7-1.25L148.81,84.6a1.88,1.88,0,0,1,3.73-.49l1.6,12.21,12.2-1.6a1.88,1.88,0,0,1,2.11,1.62,1.85,1.85,0,0,1-1.61,2.09l-13.75,1.81-.33.08A2,2,0,0,1,152.06,100.28Z"/><path class="cls-1" d="M139.69,108.31A2.1,2.1,0,0,1,139,108L105.74,82.43a1.88,1.88,0,0,1,2.29-3L141.3,105a1.85,1.85,0,0,1,.34,2.62A1.88,1.88,0,0,1,139.69,108.31Z"/><path class="cls-1" d="M84.64,86a1.87,1.87,0,0,1,.22-3.67l20.26-2.67-2.66-20.26a1.88,1.88,0,1,1,3.72-.48L109,80.63a1.45,1.45,0,0,1,.1.41,1.83,1.83,0,0,1-.4,1.42s0,0,0,0a1.86,1.86,0,0,1-1.25.71L85.35,86.06A1.86,1.86,0,0,1,84.64,86Z"/><path class="cls-1" d="M102.16,95.11a1.87,1.87,0,0,1,.23-3.67l15.47-2-2-15.48a1.88,1.88,0,0,1,3.72-.5l2.23,17a2.09,2.09,0,0,1,.08.36,1.86,1.86,0,0,1-.4,1.43h0a1.94,1.94,0,0,1-1.24.72l-17.36,2.24A1.83,1.83,0,0,1,102.16,95.11Z"/><path class="cls-1" d="M118.64,104.79a1.89,1.89,0,0,1,.23-3.69l12.21-1.59-1.59-12.22a1.85,1.85,0,0,1,1.6-2.09,1.88,1.88,0,0,1,2.11,1.61l1.8,13.74a1.21,1.21,0,0,1,.07.33,1.84,1.84,0,0,1-.37,1.38s0,0,0,0a1.84,1.84,0,0,1-1.24.71l-14.08,1.82A2.11,2.11,0,0,1,118.64,104.79Z"/><path class="cls-1" d="M181.39,140.73a1.85,1.85,0,0,1-.67-.34l-33.27-25.55a1.87,1.87,0,0,1,2.28-3L183,137.42a1.88,1.88,0,0,1-1.61,3.31Z"/><path class="cls-1" d="M184,162.48a1.86,1.86,0,0,1-1.39-1.57l-2.85-21.69a1.6,1.6,0,0,1-.1-.42,1.9,1.9,0,0,1,.38-1.4.13.13,0,0,0,0-.05,2,2,0,0,1,1.25-.71l22.12-2.85a1.87,1.87,0,1,1,.49,3.71l-20.26,2.67,2.66,20.25a1.86,1.86,0,0,1-1.61,2.1A1.73,1.73,0,0,1,184,162.48Z"/><path class="cls-1" d="M170.59,148a1.88,1.88,0,0,1-1.39-1.57l-2.23-17a1.76,1.76,0,0,1-.08-.37,1.82,1.82,0,0,1,.37-1.4l0,0a1.9,1.9,0,0,1,1.24-.71l17.35-2.25a1.88,1.88,0,0,1,.49,3.73l-15.49,2,2,15.48a1.86,1.86,0,0,1-1.61,2.1A1.7,1.7,0,0,1,170.59,148Z"/><path class="cls-1" d="M157,134.61a1.87,1.87,0,0,1-1.4-1.57l-1.8-13.73a1.51,1.51,0,0,1-.07-.33,1.86,1.86,0,0,1,.37-1.39l0,0a1.84,1.84,0,0,1,1.24-.71L169.4,115a1.87,1.87,0,0,1,2.1,1.61,1.91,1.91,0,0,1-1.62,2.11l-12.21,1.6,1.6,12.21a1.87,1.87,0,0,1-1.61,2.1A1.68,1.68,0,0,1,157,134.61Z"/><path class="cls-1" d="M96.7,117.23a1.87,1.87,0,0,1,.23-3.67l41.59-5.47a1.88,1.88,0,0,1,.49,3.72l-41.59,5.47A1.92,1.92,0,0,1,96.7,117.23Z"/><path class="cls-1" d="M83.6,134.94a2,2,0,0,1-.67-.33,1.88,1.88,0,0,1-.34-2.63h0L95,115.78,78.83,103.33a1.87,1.87,0,1,1,2.28-3l17.35,13.33a2.08,2.08,0,0,1,.38.22,1.85,1.85,0,0,1,.71,1.28s0,0,0,0a1.81,1.81,0,0,1-.37,1.38L85.56,134.26A1.85,1.85,0,0,1,83.6,134.94Z"/><path class="cls-1" d="M102.43,129a2,2,0,0,1-.68-.33,1.88,1.88,0,0,1-.34-2.62l9.51-12.39-12.38-9.52a1.87,1.87,0,1,1,2.28-3l13.57,10.42a1.81,1.81,0,0,1,.33.2,1.91,1.91,0,0,1,.72,1.28v0a1.92,1.92,0,0,1-.37,1.39l-10.69,13.84A1.86,1.86,0,0,1,102.43,129Z"/><path class="cls-1" d="M120.93,124.16a1.86,1.86,0,0,1-1-3l7.51-9.78-9.78-7.5a1.87,1.87,0,0,1,2.28-3l11,8.44.29.18a1.93,1.93,0,0,1,.71,1.24.09.09,0,0,0,0,.05,1.9,1.9,0,0,1-.38,1.38l-8.67,11.24A1.85,1.85,0,0,1,120.93,124.16Z"/><path class="cls-1" d="M149.12,110.67a1.88,1.88,0,0,1,.22-3.68l41.6-5.45a1.87,1.87,0,1,1,.48,3.71l-41.59,5.46A1.86,1.86,0,0,1,149.12,110.67Z"/><path class="cls-1" d="M207.91,118.78a1.87,1.87,0,0,1-.68-.33l-17.35-13.33a1.34,1.34,0,0,1-.36-.22,1.82,1.82,0,0,1-.73-1.28s0,0,0,0a1.85,1.85,0,0,1,.37-1.38l13.63-17.67a1.87,1.87,0,1,1,3,2.29L193.31,103l16.21,12.44a1.88,1.88,0,0,1-1.61,3.31Z"/><path class="cls-1" d="M188.21,118a1.82,1.82,0,0,1-.68-.34L174,107.24a2.92,2.92,0,0,1-.32-.21,1.85,1.85,0,0,1-.71-1.24s0,0,0-.05a1.85,1.85,0,0,1,.39-1.4L184,90.49a1.88,1.88,0,0,1,3,2.29l-9.52,12.39,12.39,9.51a1.88,1.88,0,0,1-1.6,3.31Z"/><path class="cls-1" d="M169.09,118.18a2,2,0,0,1-.67-.33l-11-8.44-.29-.18a1.9,1.9,0,0,1-.72-1.24s0,0,0,0a1.85,1.85,0,0,1,.37-1.38l8.67-11.24a1.87,1.87,0,0,1,3,2.28l-7.5,9.78,9.77,7.49a1.88,1.88,0,0,1-1.62,3.31Z"/></g></svg>