<svg id="Layer_1" data-name="Layer 1" xmlns="http://www.w3.org/2000/svg" viewBox="0 0 512 512"><defs><style>.cls-1{fill:#d80027;}.cls-2{fill:none;stroke:#a7000d;stroke-miterlimit:10;stroke-width:20px;}</style></defs><title>translate_red_cross</title><path class="cls-1" d="M218,201.59h-64.5a10,10,0,0,0,0,20H207a54.47,54.47,0,1,1-15-48.55,10,10,0,0,0,14.18-14.17A74.52,74.52,0,1,0,228,211.61,10,10,0,0,0,218,201.59Z"/><path class="cls-1" d="M470.33,92.24H269.73L242.79,10.88A10,10,0,0,0,233.27,4H41.67A41.71,41.71,0,0,0,0,45.68V378.09a41.71,41.71,0,0,0,41.67,41.67H244.81l27.08,81.37A10,10,0,0,0,281.4,508H470.33A41.71,41.71,0,0,0,512,466.32V133.91A41.71,41.71,0,0,0,470.33,92.24ZM41.67,399.71a21.65,21.65,0,0,1-21.62-21.62V45.68A21.65,21.65,0,0,1,41.67,24.06H226l70.69,213.52s0,0,0,0L350.4,399.71ZM337.45,283.27c.8,1.11,10.82,14.88,26.35,34.07-4.37,5.76-9,11.48-13.91,17l-29.71-89.74h87.44a440.21,440.21,0,0,1-31.69,55.73c-13.55-16.92-22.07-28.62-22.25-28.87a10,10,0,0,0-16.23,11.77ZM266,419.76h75.16l-55.5,59.08Zm226,46.56a21.65,21.65,0,0,1-21.62,21.62H304.58l67-71.34h0a9.91,9.91,0,0,0,.82-1,10,10,0,0,0,1.39-9l-16.69-50.4c7.07-7.41,13.68-15.14,19.81-23,13.3,15.77,29,33.44,45.77,50.18a10,10,0,0,0,14.18-14.18c-17.46-17.46-34-36.24-47.69-52.63a446.63,446.63,0,0,0,40.54-71.95h21.45a10,10,0,1,0,0-20H385V206.54a10,10,0,1,0-20.05,0v18.05H313.54l-37.18-112.3h194A21.65,21.65,0,0,1,492,133.91V466.32Z"/><line class="cls-2" x2="512" y2="512"/><line class="cls-2" x1="512" y2="512"/></svg>